<?xml version="1.0" standalone="no"?>
<!DOCTYPE svg PUBLIC "-//W3C//DTD SVG 20010904//EN"
 "http://www.w3.org/TR/2001/REC-SVG-20010904/DTD/svg10.dtd">
<svg version="1.0" xmlns="http://www.w3.org/2000/svg"
 width="584.000000pt" height="584.000000pt" viewBox="0 0 584.000000 584.000000"
 preserveAspectRatio="xMidYMid meet">
<metadata>
Created by potrace 1.14, written by Peter Selinger 2001-2017
</metadata>
<g transform="translate(0.000000,584.000000) scale(0.100000,-0.100000)"
fill="#000000" stroke="none">
<path d="M1519 4423 c-7 -38 -3 -159 6 -165 15 -11 95 -9 95 2 0 6 -18 10 -40
10 l-40 0 -1 43 c-1 23 -1 57 -1 74 0 29 -16 58 -19 36z"/>
<path d="M1770 4357 c0 -59 4 -77 18 -90 23 -21 71 -22 100 -1 19 13 22 24 22
90 0 43 -4 74 -10 74 -9 0 -15 -56 -10 -108 3 -45 -69 -71 -90 -33 -5 11 -10
47 -10 80 0 34 -4 61 -10 61 -6 0 -10 -31 -10 -73z"/>
<path d="M2088 4423 c-7 -35 -2 -173 7 -170 5 2 10 31 10 65 0 34 3 62 8 62 4
0 7 -4 7 -8 0 -5 8 -17 18 -28 9 -10 30 -36 45 -57 15 -20 32 -37 38 -37 5 0
9 40 9 91 0 68 -3 90 -12 86 -9 -2 -13 -24 -12 -67 l2 -64 -29 34 c-16 19 -39
50 -51 67 -22 32 -36 41 -40 26z"/>
<path d="M2419 4401 c-20 -20 -29 -39 -29 -61 0 -44 47 -90 92 -90 48 1 70 21
66 61 -3 34 -3 35 -63 30 -26 -2 -16 -18 10 -18 33 0 42 -10 29 -30 -16 -26
-67 -27 -89 -3 -25 27 -22 80 6 102 23 20 64 24 74 8 3 -5 14 -10 23 -10 14 1
13 4 -7 20 -34 29 -77 26 -112 -9z"/>
<path d="M2727 4412 c-28 -31 -15 -69 25 -76 39 -7 58 -19 58 -37 0 -26 -26
-35 -63 -21 -37 14 -50 6 -23 -14 32 -23 83 -18 102 11 15 22 15 27 1 48 -8
13 -33 29 -56 36 -37 10 -40 14 -31 31 11 21 54 27 65 10 4 -6 11 -7 17 -4 16
10 -21 34 -52 34 -15 0 -34 -8 -43 -18z"/>
<path d="M3022 4410 c-60 -56 -27 -160 52 -160 65 0 107 66 81 128 -23 53 -92
70 -133 32z m98 -22 c39 -42 12 -118 -42 -118 -31 0 -45 11 -57 43 -15 38 -14
40 10 71 25 32 61 34 89 4z"/>
<path d="M3329 4395 c0 -19 -1 -55 -1 -80 0 -25 1 -50 1 -56 1 -8 18 -10 53
-7 68 7 102 42 93 97 -8 52 -34 74 -94 77 l-51 3 -1 -34z m108 -7 c8 -8 15
-30 15 -48 1 -39 -32 -69 -74 -70 -28 0 -28 1 -28 63 0 35 3 67 6 70 11 11 65
0 81 -15z"/>
<path d="M3839 4405 c-4 -114 0 -157 13 -153 9 3 12 25 11 69 l-2 64 25 -30
c14 -16 37 -47 51 -67 42 -62 50 -51 48 62 0 43 -5 74 -10 72 -6 -1 -11 -17
-11 -35 -4 -99 1 -97 -54 -23 -28 36 -55 66 -60 66 -6 0 -10 -11 -11 -25z"/>
<path d="M4195 4418 c-53 -30 -62 -99 -19 -142 50 -49 138 -25 132 37 -3 28
-6 31 -35 30 -52 -2 -55 -2 -48 -13 4 -6 14 -10 23 -9 45 4 54 -8 26 -35 -23
-24 -60 -19 -83 10 -25 32 -21 71 10 97 25 20 42 21 71 6 27 -14 38 -1 14 17
-24 17 -63 18 -91 2z"/>
<path d="M1937 3923 c-1 0 -19 -4 -40 -7 -71 -11 -128 -50 -169 -116 -36 -59
-38 -114 -38 -1002 l0 -871 66 6 c73 7 253 46 255 56 1 3 2 211 3 461 l1 455
115 3 116 3 -1 -423 c0 -233 0 -426 2 -429 1 -3 73 18 160 47 l158 52 2 765
c2 649 0 772 -12 814 -28 93 -83 151 -169 174 -32 9 -441 20 -449 12z m296
-232 c9 -9 12 -87 13 -271 l0 -260 -30 -1 c-137 -2 -184 -1 -193 4 -5 3 -9
108 -9 264 1 256 1 257 23 269 29 14 181 10 196 -5z"/>
<path d="M2971 3918 c-106 -16 -183 -83 -207 -183 -15 -59 -14 -470 1 -525 19
-71 56 -124 107 -153 55 -32 96 -38 257 -39 108 -1 133 -4 146 -18 13 -14 15
-79 17 -435 l3 -418 145 -49 c79 -26 147 -48 150 -48 3 0 5 235 5 523 -1 583
-2 587 -70 660 -64 68 -127 85 -316 83 -157 -2 -151 -9 -150 179 0 108 4 153
14 162 8 8 42 13 91 14 99 2 108 -6 108 -95 0 -41 5 -66 12 -67 13 -1 277 -1
290 0 15 1 0 222 -18 262 -26 62 -90 124 -138 135 -5 1 -9 2 -10 3 -18 14
-356 20 -437 9z"/>
<path d="M3899 3916 c-131 -41 -162 -200 -54 -282 49 -37 137 -41 182 -8 54
40 75 83 71 144 -5 65 -34 111 -86 136 -45 21 -69 23 -113 10z"/>
<path d="M4567 3924 c-1 -1 -23 -4 -48 -6 -52 -5 -122 -38 -151 -71 -27 -31
-56 -99 -63 -149 -8 -52 -9 -1727 -2 -1735 5 -4 297 129 316 144 2 1 5 356 5
789 1 721 2 787 18 798 22 16 184 14 200 -2 8 -8 12 -48 12 -112 l0 -100 41
-1 c107 -2 256 1 263 5 8 5 6 161 -3 221 -9 58 -37 116 -76 153 -54 52 -115
65 -327 66 -101 1 -184 1 -185 0z"/>
<path d="M688 3902 l-28 -3 0 -810 0 -809 23 -1 c12 0 63 -11 112 -24 116 -32
120 -33 120 -35 0 -1 7 -3 15 -5 8 -2 23 -6 33 -10 11 -5 17 -2 18 6 1 8 2
187 3 398 l1 385 165 1 c192 2 246 15 303 72 65 64 72 104 72 388 0 242 -1
252 -24 303 -37 81 -99 124 -201 138 -50 7 -563 11 -612 6z m502 -238 c13 -11
16 -46 15 -218 0 -138 -4 -209 -11 -216 -11 -11 -163 -21 -194 -13 -14 4 -16
35 -14 231 0 125 2 227 3 228 0 1 43 1 94 1 63 0 97 -4 107 -13z"/>
<path d="M3875 3446 c-37 -17 -70 -52 -85 -91 -13 -33 -18 -1351 -5 -1363 4
-4 10 -7 13 -8 5 0 87 -18 132 -29 52 -12 150 -27 160 -23 11 3 13 134 13 704
0 747 2 715 -46 776 -34 43 -125 59 -182 34z"/>
<path d="M4735 3123 l0 -118 60 -5 60 -5 1 -390 c1 -214 2 -393 3 -397 0 -3
25 3 54 13 28 11 97 30 151 43 l99 23 0 469 c-1 258 -2 472 -2 477 -1 4 -97 7
-214 7 l-212 0 0 -117z"/>
<path d="M2751 2537 l-1 -332 155 0 154 0 0 333 0 332 -154 0 -154 0 0 -333z"/>
<path d="M700 1541 c0 -84 18 -111 73 -111 49 0 68 26 71 97 3 64 -1 86 -15
77 -5 -3 -9 -34 -9 -69 0 -68 -12 -85 -59 -85 -29 0 -36 17 -36 89 0 42 -4 66
-13 69 -9 3 -12 -15 -12 -67z"/>
<path d="M967 1603 c-4 -7 -2 -161 2 -173 1 -3 5 1 10 8 4 7 7 37 6 67 -1 30
2 52 6 50 3 -3 17 -32 29 -65 13 -34 27 -57 31 -53 5 5 20 35 33 68 l25 60 1
-67 c0 -38 4 -68 9 -68 14 0 17 20 16 100 0 57 -4 75 -14 75 -16 0 -23 -11
-52 -80 -23 -55 -19 -58 -58 38 -19 44 -34 57 -44 40z"/>
<path d="M1289 1563 c-31 -72 -50 -126 -45 -131 8 -7 26 9 26 24 0 10 13 14
49 14 40 0 50 -3 54 -20 3 -11 10 -20 17 -20 12 0 8 24 -15 75 -7 17 -20 47
-29 68 -8 20 -20 37 -26 37 -6 0 -20 -21 -31 -47z m49 -26 c16 -46 16 -47 -18
-47 -16 0 -30 3 -30 7 0 14 24 73 30 73 3 0 11 -15 18 -33z"/>
<path d="M1555 1578 c-7 -18 -23 -55 -34 -81 -12 -27 -21 -53 -21 -58 0 -18
22 -9 27 11 8 30 85 29 106 -2 8 -13 17 -21 20 -18 12 12 -57 180 -73 180 -6
0 -17 -15 -25 -32z m36 -18 c3 -19 5 -25 17 -47 12 -22 11 -23 -23 -23 -39 0
-40 3 -24 49 11 30 28 42 30 21z"/>
<path d="M1788 1593 c-73 -45 -37 -163 49 -163 50 1 73 19 73 59 0 26 -4 31
-25 32 -14 1 -32 2 -40 3 -8 0 -16 -3 -17 -9 -2 -5 12 -11 30 -13 52 -5 35
-52 -20 -52 -58 0 -85 74 -43 120 20 22 24 22 95 4 l25 -6 -25 21 c-30 25 -66
26 -102 4z"/>
<path d="M2045 1587 c-43 -36 -40 -110 4 -144 9 -7 32 -13 52 -13 50 0 83 36
83 91 0 77 -82 116 -139 66z m73 -3 c12 -4 29 -19 37 -34 12 -24 12 -31 -3
-61 -33 -66 -116 -42 -114 33 0 21 9 39 23 50 24 20 25 20 57 12z"/>
<path d="M2312 1594 c-14 -10 -22 -24 -20 -37 3 -19 15 -28 78 -57 8 -4 15
-16 15 -26 0 -23 -48 -32 -71 -13 -19 16 -30 4 -14 -16 16 -19 84 -20 99 -1
31 37 9 85 -39 86 -8 0 -24 7 -34 15 -15 11 -17 17 -7 29 12 14 41 15 74 1 24
-10 22 12 -2 25 -28 14 -53 13 -79 -6z"/>
<path d="M2723 1598 c-16 -20 -66 -159 -60 -165 9 -8 27 7 27 23 0 10 12 14
44 14 36 0 46 -4 51 -20 3 -11 13 -20 21 -20 8 0 14 1 14 3 0 1 -16 41 -35 87
-19 46 -35 86 -35 87 0 8 -19 1 -27 -9z m33 -63 c19 -46 19 -45 -22 -45 -28 0
-34 3 -26 13 6 6 11 17 11 22 2 18 12 45 17 45 3 0 12 -16 20 -35z"/>
<path d="M2927 1603 c-2 -5 -4 -45 -5 -91 -1 -60 2 -82 11 -79 8 2 12 26 12
65 0 34 1 62 2 62 1 0 22 -26 45 -57 73 -98 79 -97 76 15 -2 54 -7 85 -13 82
-5 -3 -10 -31 -9 -62 0 -32 -2 -58 -5 -58 -3 1 -26 30 -51 65 -44 63 -55 73
-63 58z"/>
<path d="M3208 1580 c-27 -27 -30 -36 -25 -72 4 -27 14 -48 29 -60 24 -19 84
-24 107 -9 16 10 26 81 11 82 -5 1 -21 1 -35 1 -41 0 -46 -2 -40 -12 3 -5 17
-10 30 -10 26 0 39 -22 22 -39 -16 -16 -63 -14 -81 5 -55 55 5 151 72 115 34
-18 49 -12 23 9 -35 30 -77 26 -113 -10z"/>
<path d="M3599 1598 c-6 -89 -2 -162 9 -166 8 -2 12 8 12 32 0 35 1 36 40 36
29 0 42 5 50 19 14 28 12 56 -5 71 -21 17 -105 24 -106 8z m96 -29 c16 -16 -9
-44 -44 -47 -28 -3 -31 -1 -31 26 0 16 3 31 6 35 8 8 57 -2 69 -14z"/>
<path d="M3866 1602 c-13 -22 -66 -165 -62 -169 8 -8 26 7 26 23 0 10 12 14
44 14 35 0 48 -5 60 -22 18 -25 33 -18 21 9 -5 10 -9 20 -10 23 -1 3 -6 16
-12 30 -6 14 -18 42 -26 63 -15 35 -30 46 -41 29z m44 -103 c0 -5 -13 -9 -30
-9 -34 0 -36 8 -14 52 l16 32 14 -33 c8 -18 14 -37 14 -42z"/>
<path d="M4079 1581 c-59 -60 -23 -151 60 -151 47 1 71 20 71 58 0 32 -19 42
-67 34 -29 -5 -19 -22 12 -22 13 0 27 -5 30 -10 11 -17 -15 -40 -44 -40 -64 1
-91 71 -46 116 18 18 32 24 48 20 12 -3 33 -8 47 -12 l25 -6 -24 21 c-34 30
-77 27 -112 -8z"/>
<path d="M4522 1558 c-11 -29 -27 -70 -36 -90 -14 -34 -14 -38 -1 -38 8 0 15
6 15 14 0 17 22 26 67 26 26 0 36 -5 40 -20 3 -11 12 -20 19 -20 18 0 18 -2
-11 64 -14 31 -25 63 -25 71 0 8 -4 15 -10 15 -5 0 -10 7 -10 15 0 34 -29 11
-48 -37z m53 -24 c19 -47 20 -44 -19 -44 l-34 0 15 40 c9 22 18 40 19 40 2 0
11 -16 19 -36z"/>
<path d="M4758 1599 c-28 -16 -23 -63 7 -77 14 -7 32 -12 39 -12 20 0 37 -25
30 -44 -7 -18 -46 -21 -74 -6 -12 6 -21 7 -25 1 -9 -16 33 -32 73 -29 27 2 40
9 49 27 17 34 1 58 -47 71 -44 12 -53 21 -44 44 7 18 36 21 64 6 12 -6 21 -7
25 -1 14 24 -64 40 -97 20z"/>
<path d="M5015 1581 c-24 -48 -57 -142 -52 -148 9 -8 27 7 27 23 0 10 13 14
46 14 37 0 47 -4 51 -20 4 -16 33 -30 33 -16 0 4 -28 74 -40 101 -5 11 -14 32
-20 48 -12 35 -26 34 -45 -2z m39 -35 c3 -13 9 -31 12 -40 5 -13 -1 -16 -29
-16 l-35 0 15 40 c18 46 28 50 37 16z"/>
<path d="M4326 1502 c-13 -12 -5 -18 24 -17 17 0 30 4 30 10 0 11 -45 17 -54
7z"/>
</g>
</svg>
